<?xml version="1.0" encoding="UTF-8"?>
<svg width="24px" height="24px" viewBox="0 0 24 24" version="1.1" xmlns="http://www.w3.org/2000/svg" xmlns:xlink="http://www.w3.org/1999/xlink">
    <title>Icons/24px/cards</title>
    <g id="Icons/24px/cards" stroke="none" stroke-width="1" fill="none" fill-rule="evenodd">
        <g id="Group" fill="#000000" fill-rule="nonzero">
            <g id="A.-Finance/b.-Currency/AB031-account-euro-|-Euros,-Currency,-Coin,-Moneda,-Divisa,-Money,-Dinero,-account,--cuenta" transform="translate(12.000000, 12.000000) scale(-1, 1) translate(-12.000000, -12.000000) ">
                <path d="M20.0380859,6 C21.1201172,6 22,6.8803711 22,7.9624024 L22,16.0375977 C22,17.1196289 21.1201172,18 20.0380859,18 L3.9599609,18 C2.8789062,18 2,17.1206055 2,16.0400391 L2,7.9624023 C2,6.8803711 2.8798828,6 3.961914,6 L20.0380859,6 Z M21,15 L3,15 L3,16.0400391 C3,16.5693359 3.4306641,17 3.9599609,17 L20.0380859,17 C20.5683594,17 21,16.5683594 21,16.0375977 L21,15 Z M21,13 L3,13 L3,14 L21,14 L21,13 Z M20.0380859,7 L3.9619141,7 C3.4316406,7 3,7.4316406 3,7.9624023 L3,12 L21,12 L21,7.9624023 C21,7.4316406 20.5683594,7 20.0380859,7 Z" id="icon-color"></path>
            </g>
        </g>
    </g>
</svg>