<svg width="220" height="241" viewBox="0 0 220 241" xmlns="http://www.w3.org/2000/svg" xmlns:xlink="http://www.w3.org/1999/xlink">
    <defs>
        <path id="a" d="M0 0h95.042v143.098H0z"/>
        <path id="c" d="M0 0h83.892v64.61H0z"/>
        <path id="e" d="M0 0h3.186v1.716H0z"/>
        <path id="g" d="M0 0h15.495v11.183H0z"/>
        <path id="i" d="M0 0h1.118v3.788H0z"/>
        <path id="k" d="M0 0h20.975v21.044H0z"/>
    </defs>
    <g fill="none" fill-rule="evenodd">
        <path d="M213 231.5c0 5.247-43.652 9.5-97.5 9.5S18 236.747 18 231.5s43.652-9.5 97.5-9.5 97.5 4.253 97.5 9.5M209.315 132.732c-2.883-10.334 6.28-10.732 6.482-24.047.082-5.445-2.903-10.991-10.086-13.535-3.53-1.25-7.049-2.11-10.19-4.097-7.158-4.53-7.028-13.15-8.981-20.499-4.288-16.14-20.793-28.961-37.499-28.544-12.043.3-22.93.669-33.91 10.884-7.513 6.99-12.396 15.59-19.37 22.795-7.387 7.63-16.387 11.292-26.494 13.743-9.558 2.319-19.956 5.078-27.272 12.03-6.875 6.534-5.872 13.368-2.925 21.39 3.251 8.846-3.798 14.865-11.147 18.31-6.188 2.9-16.547 8.8-16.886 19.678-1.048 33.693 20.37 33.828 28.354 37.03 73.457 29.46 101.647 6.738 132.794 7.198 31.049.457 48.847-37.065 47.769-48.115-1.37-14.03-8.626-17.006-10.64-24.221" fill="#DEEDF2" fill-rule="nonzero"/>
        <g transform="rotate(-52 77.21 36.563)">
            <mask id="b" fill="#fff">
                <use xlink:href="#a"/>
            </mask>
            <path d="M.542 26.284c-1.658 13.467-.2 34.834 14.236 63.668 14.436 28.835 30.65 42.765 42.407 49.47 8.403 4.793 19.01 4.895 28.07.33l5.06-2.55c4.109-2.071 5.875-6.874 3.946-10.728l-12.089-24.145c-1.929-3.854-6.824-5.3-10.934-3.229l-7.069 3.564c-2.33 1.173-5.066 1.162-7.223-.076C45.952 96.277 37.323 78.59 37.323 78.59s-8.99-17.505-7.472-30.121c.297-2.477 1.922-4.686 4.252-5.86l7.07-3.562c4.109-2.071 5.875-6.874 3.946-10.728L33.03 4.173C31.1.32 26.206-1.126 22.097.945l-5.06 2.55C7.978 8.061 1.727 16.66.542 26.285" fill="#9BC3D3" fill-rule="nonzero" mask="url(#b)"/>
        </g>
        <g transform="rotate(-52 152.896 -12.473)">
            <mask id="d" fill="#fff">
                <use xlink:href="#c"/>
            </mask>
            <path d="M5.226 11.464c14.437 28.834 30.65 42.764 42.408 49.47 8.403 4.793 19.01 4.895 28.07.33l5.059-2.55c1.304-.657 2.34-1.608 3.129-2.698C38.615 63.73.709 1.178 0 0c1.52 3.684 3.24 7.496 5.226 11.464z" fill="#CEDEE7" fill-rule="nonzero" mask="url(#d)"/>
        </g>
        <g fill-rule="nonzero">
            <path fill="#34466B" d="m70.338 113.223-7.807 3.091-12.762 10.632-5.835-19.064-7.11 1.283 4.558 23.28 7.475 6.782 21.514-11.915-.033-14.09"/>
            <path fill="#FFC4B8" d="m112.698 125.297 3.012-2.98 4.748.113.542 2.421-7.175 3.117-1.127-2.67M63.074 168.418l-.627 6.23 5.55 21.406-5.154 34.398 3.794 1.316 10.004-33.582 1.588-9.77-.058-20.682-15.097.684"/>
            <path fill="#FFC4B8" d="M92.252 175.362 84.272 233h-3.627l-.653-36.946-6.601-25.932 18.861 5.24"/>
            <path d="M63.274 160.775c3.098-20.968 1.992-36.237 2.152-40.43.161-4.193 3.018-6.369 3.018-6.369 1.255-.288 2.347-1.12 3.613-1.448 8.565-2.22 13.237 4.517 16.443 11.782a212.282 212.282 0 0 1 9.953 27.638c2.355 8.281 4.715 16.637 5.703 25.232.658 5.73-.35 8.554-3.023 8.473-8.505 1.626-14.872 2.705-19.102 3.238-7.288.919-14.586 1.59-21.923 1.904-3.83.164.068-9.053 3.166-30.02" fill="#34466B"/>
            <path fill="#FFC4B8" d="M38.211 108.915 35 105.683 36.094 100h3.1l.911 4.95 1.573.95v2.39l-3.467.625"/>
            <path fill="#34466B" d="m76.206 112.098 8.205 1.466 14.809 14.404 13.275-4.685 4.268 5.471-17.766 10.473-18.78-12.098-4.011-15.03"/>
        </g>
        <g fill-rule="nonzero">
            <path d="M67.245 105.164a9.175 9.175 0 0 1-4.955-7.241c-.527-5.016 3.044-9.51 7.97-10.027 4.795-.504 9.117 2.942 9.83 7.751a7.301 7.301 0 0 1 .19 1.621l.423 7.685-3.195 1.765.62 5.895c-2.958 2.65-6.145 2.906-9.542.984l-1.34-8.433z" fill="#FFC4B8"/>
            <path d="M77.298 106.696s-9.523 1.261-10.107-1.662l.407 2.381s.36 1.628 9.7-.719zm2.434-3.76-1.529-3.725-.283 2.55c-.097.863.874 1.493 1.812 1.175z" fill="#F4A48D"/>
            <path d="M65.19 114.58c-3.274-.822-5.829-3.662-6.207-7.291a8.45 8.45 0 0 1 1.917-6.324c.218-.261.298-.612.217-.946l.004.002-.005-.008-.02-.082a11.453 11.453 0 0 1-.144-.734c-.656-4.13 1.203-8.405 4.958-10.556a9.869 9.869 0 0 1 1.917-.843l.191-.113a9.738 9.738 0 0 1 6.87-1.088 9.97 9.97 0 0 1 2.606.937c-.052.73-.168 1.443-.343 2.135a10.295 10.295 0 0 1 2.425 2.953c.427.775.745 1.583.96 2.404l-3.17-3.323-.683-.576c-1.394 3.556-4.404 6.321-8.2 7.244.1.588.17 1.21.184 1.84-.51-.483-1.104-.666-1.495-.406-.476.317-.484 1.18-.047 1.997l.013.025.014.024.003.006.011.02.004.007.011.018.004.007.014.024.003.004.012.02.005.008.01.018.005.007.016.024.013.02.004.007.009.014.005.007.008.012.005.009.008.011.006.008.008.012.005.008.008.011.006.008.008.012.006.007.009.013.004.006.014.019.014.019.014.018.006.007.008.011.006.008.009.01.006.008.008.01.006.008.014.018.01.01.005.007.01.011.005.006.014.018.015.017.015.016.005.007.01.01.015.016.015.017.006.007.015.016.01.01.005.006.01.01.006.005.015.016.015.015.016.015.005.005.01.01.006.006.01.009.006.006.01.008.006.006.009.009.007.006.009.008.006.006.01.008.006.006.016.013.016.014.016.013.016.013.006.005.01.008.006.006.01.007.006.005.01.008.006.005.01.007.007.005.01.007.006.005.01.008.006.004.016.012.016.011.016.011.016.011.007.005.01.006.007.005.009.006.016.01.007.005.01.006.007.004.016.01.016.01.016.01.017.008.016.01.006.003.01.005.007.004.01.005.006.004.01.005.007.003.01.005.006.003.016.008.012.006c.294.138.583.17.817.07 1.674 1.753 4.145 4.83 3.259 6.956l-.004.01a1.004 1.004 0 0 1-1.081.603l-.002.01-2.366-.707c-.389-.116-.55-.133-.847-.2-.155.365-.284.576-.471.931-.788 1.49-1.71 2.932-2.385 3.94z" fill="#9E3667"/>
        </g>
        <path d="M77.585 108.325s1.238.108 1.37.114c4.184.182 8.068 2.101 8.81 6.323.188 1.067-1.055 3.032-3.054 2.306-1.895-.688-2.497-3.3-5.153-4.115-.602-.184-1.213-.3-1.798-.377l-.033-2.394c-.111-1.136-.159-1.755-.142-1.857z" fill="#9E3667" fill-rule="nonzero"/>
        <path fill="#F5F8FF" fill-rule="nonzero" d="m80 133-12-20.191 3.64-1.128 2.625-.681 4.628.276z"/>
        <path fill="#CEDEE7" fill-rule="nonzero" d="m84.312 230.654-3.902.55-.478 3.825.089.015-.022.006 6.016 2.704 2.7-.026-.043-3.154-.785-.45zM67.6 228l5.4 3.948-.633 3.052L61 233.258 62.5 228z"/>
        <path d="M75.077 106.158c-2.33.41-4.519-.962-4.89-3.066l-.839.148c.445 2.522 3.07 4.168 5.863 3.675l-.134-.757z" fill="#777F87" fill-rule="nonzero"/>
        <g transform="scale(-1 1) rotate(10 -639.204 -390.664)">
            <mask id="f" fill="#fff">
                <use xlink:href="#e"/>
            </mask>
            <path d="M.766 0H2.42c.423 0 .766.344.766.769v.178a.768.768 0 0 1-.766.77H.766A.767.767 0 0 1 0 .946V.77C0 .344.343 0 .766 0" fill="#434D55" fill-rule="nonzero" mask="url(#f)"/>
        </g>
        <g transform="scale(-1 1) rotate(10 -537.334 -419.208)">
            <mask id="h" fill="#fff">
                <use xlink:href="#g"/>
            </mask>
            <path d="M14.1 11.183V7.89c0-3.561-2.844-6.448-6.352-6.448-.676 0-1.916.158-3.72.473L3.551.69C5.248.23 6.647 0 7.748 0c4.278 0 7.747 3.52 7.747 7.864v3.32H14.1z" fill="#919CA6" fill-rule="nonzero" mask="url(#h)"/>
        </g>
        <g transform="scale(-1 1) rotate(10 -603.58 -330.403)">
            <mask id="j" fill="#fff">
                <use xlink:href="#i"/>
            </mask>
            <path d="M.693.442c.425.348.425.586.425.88v1.144c0 .295 0 .532-.425.88L0 3.788V0l.693.442z" fill="#777F87" fill-rule="nonzero" mask="url(#j)"/>
        </g>
        <path d="m69.62 104.306-.863.153c-.74.13-1.447-.378-1.58-1.134l-.591-3.35c-.134-.756.358-1.475 1.097-1.605l.863-.152c.739-.13 1.446.377 1.58 1.134l.59 3.348c.134.757-.357 1.476-1.097 1.606" fill="#434D55" fill-rule="nonzero"/>
        <g>
            <g transform="rotate(4 -3001.25 2083.38)">
                <mask id="l" fill="#fff">
                    <use xlink:href="#k"/>
                </mask>
                <path d="M12.938.32C10.117-.364 7.45.05 5.015 1.543 2.578 3.038.998 5.232.319 8.064c-.681 2.834-.27 5.509 1.22 7.95 1.49 2.444 3.677 4.029 6.499 4.71 1.119.271 2.213.37 3.279.296 1.62-.111 3.174-.619 4.644-1.52 2.436-1.495 4.016-3.689 4.696-6.52.68-2.828.269-5.503-1.221-7.95C17.943 2.584 15.756 1 12.938.32" fill="#EC0000" fill-rule="nonzero" mask="url(#l)"/>
            </g>
            <path d="M213.68 141.823c-4.558-7.931-12.225-13.638-22.79-16.963-10.563-3.323-20.183-3.058-28.594.787-7.31 3.343-12.672 9.027-15.935 16.894a5.123 5.123 0 0 0 .096 4.132 5.177 5.177 0 0 0 3.126 2.728l6.291 1.98c2.51.788 5.212-.422 6.282-2.818 1.897-4.25 4.584-7.13 8.216-8.806 4.395-2.029 9.697-2.09 15.756-.184 6.04 1.9 10.285 5.041 12.613 9.334 2.317 4.28 2.543 9.433.673 15.318-2.577 8.112-6.652 12.84-12.11 14.055-5.749 1.278-13.82.247-24.005-3.069l-2.722-.857c-2.718-.855-5.627.647-6.484 3.346l-7.486 23.557a5.073 5.073 0 0 0 .344 3.916 5.131 5.131 0 0 0 3.029 2.53l6.38 2.009a5.197 5.197 0 0 0 1.549.24c2.196.004 4.24-1.397 4.936-3.586l4.847-15.256a.373.373 0 0 1 .454-.244c11.991 3.425 21.96 3.676 29.629.745 8.155-3.117 14.062-10.273 17.556-21.268 3.48-10.953 2.925-20.548-1.651-28.52" fill="#EC0000" fill-rule="nonzero"/>
        </g>
    </g>
</svg>
