<?xml version="1.0" encoding="UTF-8"?>
<svg width="22px" height="22px" viewBox="0 0 22 22" version="1.1" xmlns="http://www.w3.org/2000/svg" xmlns:xlink="http://www.w3.org/1999/xlink">
    <title>8C712A99-0C2D-4A3B-8E5B-74CECC402AA0</title>
    <g id="E4" stroke="none" stroke-width="1" fill="none" fill-rule="evenodd">
        <g id="PTUPL65v3_E8_D9" transform="translate(-297.000000, -328.000000)" fill="#EC0000">
            <g id="Group" transform="translate(297.000000, 328.000000)">
                <path d="M7.18978333,1.83296667 C8.05005397,1.83296667 8.82004541,2.36870057 9.12081654,3.17547503 L9.82770484,5.07426366 C10.2119741,6.10919735 9.71230768,7.26330042 8.6947721,7.69130206 L6.69077408,8.53395151 C8.06490952,11.041013 10.96939,13.9481924 13.4664407,15.310069 L14.3085445,13.3055933 C14.7355516,12.2876178 15.8910612,11.7878599 16.9259261,12.1732823 L18.8239659,12.8789757 C19.631341,13.1783528 20.1670333,13.9491041 20.1670333,14.8102167 L20.1670333,17.7701333 C20.1670333,19.0938227 19.0938551,20.1663 17.76995,20.1663 C8.96829855,20.1663 1.8337,13.0314096 1.8337,4.23005 C1.8337,2.90614489 2.90617726,1.83296667 4.22986667,1.83296667 L7.18978333,1.83296667 Z M7.18978333,2.74963333 L4.22986667,2.74963333 C3.4125724,2.74963333 2.75036667,3.41227188 2.75036667,4.23005 C2.75036667,12.525157 9.47456796,19.2496333 17.76995,19.2496333 C18.5877281,19.2496333 19.2503667,18.5874276 19.2503667,17.7701333 L19.2503667,14.8102167 C19.2503667,14.3322743 18.95305,13.9044967 18.5048906,13.7383177 L16.6062338,13.032395 C16.031843,12.8184704 15.3905855,13.0958142 15.1537583,13.660405 L14.1197583,16.121655 C14.0176083,16.3648046 13.7318358,16.4717943 13.4951191,16.3555124 L13.4435851,16.3301967 C10.5428321,14.911525 7.05353572,11.4100202 5.64350463,8.50378414 C5.52879284,8.26734997 5.63596312,7.9830761 5.87821124,7.8812146 L8.33941042,6.84631931 C8.90425383,6.60873164 9.18169828,5.96790507 8.96850012,5.39370831 L8.26182362,3.49548893 C8.09471451,3.0472433 7.6669702,2.74963333 7.18978333,2.74963333 Z M11,1.83333333 C16.0628805,1.83333333 20.1666667,5.93711949 20.1666667,11 C20.1666667,11.2531305 19.9614638,11.4583333 19.7083333,11.4583333 C19.4552028,11.4583333 19.25,11.2531305 19.25,11 C19.25,6.44338051 15.5566195,2.75 11,2.75 C10.7468695,2.75 10.5416667,2.54479718 10.5416667,2.29166667 C10.5416667,2.03853616 10.7468695,1.83333333 11,1.83333333 Z M11.000275,4.05991667 C14.8329888,4.05991667 17.9403583,7.16728616 17.9403583,11 C17.9403583,11.2531305 17.7351555,11.4583333 17.482025,11.4583333 C17.2288945,11.4583333 17.0236917,11.2531305 17.0236917,11 C17.0236917,7.67354718 14.3267278,4.97658333 11.000275,4.97658333 C10.7471445,4.97658333 10.5419417,4.77138051 10.5419417,4.51825 C10.5419417,4.26511949 10.7471445,4.05991667 11.000275,4.05991667 Z" id="🌈-Color"></path>
            </g>
        </g>
    </g>
</svg>