<?xml version="1.0" encoding="utf-8"?>
<!-- Generator: Adobe Illustrator 19.0.0, SVG Export Plug-In . SVG Version: 6.00 Build 0)  -->
<svg xmlns:xlink="http://www.w3.org/1999/xlink"  version="1.1" xmlns="http://www.w3.org/2000/svg"
	 viewBox="0 0 356.1 69.7">
<style type="text/css">
	.st0{fill:#002B7D;}
	.st1{fill:#008039;}
</style>
<g>
	<path class="st0" d="M70.3,14.9c0,0,0.9,1.3,3.7,1.3c2.5,0,4.2-1,7.1-1.3c0,0,1.4-0.1,2.7,0c1.7,0.1,2.8,0.5,3.9,1.1
		c1.7,1,3.2,2.9,3.2,6.1c0,2-0.5,4.1-1.6,5.7c-1.6,2.3-3.6,3.1-5.3,3.7l2.3,6.6l1.9,5.1L88,43.6l-8.6,0.3l-0.2-0.2L78,39.8l-1.8-6.6
		l-1.5,0c-1,4-1.2,5.1-2.1,10.4l-0.3,0.2c-3.8,0-4.8,0-8.4,0.2l-0.2-0.2l2-8.3l1.2-5c1.7-7.1,2-8.7,3.2-15.2L70.3,14.9z M74.7,33
		c2.3-6.4,5.5-5.5,6.8-7.3c0.7-1,0.8-2.4,0.8-2.7c0-0.8-0.4-1.6-1-2c-0.6-0.4-1.3-0.5-2.7-0.5h-0.8l-0.5,2.1L74.7,33z"/>
	<path class="st0" d="M113,36.6c-0.6,2.2-1.4,4-5.3,6.4c-0.8,0.5-2.9,1.3-5.5,1.3c-3,0-4.6-0.7-5.9-1.4c-1.6-0.9-2.9-2.3-3.7-4
		c-0.8-1.8-0.9-4-0.9-4.9c0-7.7,5.1-12.7,12.1-12.7c5.5,0,9.3,2.6,9.3,8.8c0,1.5-0.2,2.8-0.4,4.1l-0.3,0.2c-6.5,0-7.9,0-12.9,0.2
		c0.2,1.4,0.5,3.7,5,3.8c5.1,0,6.5-1.1,8.2-2.2L113,36.6z M105.8,30.1c0.1-0.5,0.2-0.9,0.2-1.4c0-1.9-1.5-2.4-2.5-2.4
		c-0.6,0-1.1,0.2-1.7,0.5c-1.4,0.9-1.7,2.4-2,3.4L105.8,30.1z"/>
	<path class="st0" d="M122.5,43.6l-0.2,0.2c-8.9-0.2-7.3-4.8-7.3-4.8l1.3-5.4l1.8-7.7c0.4-1.6,0.7-3.3,1.1-5
		c0.8-3.4,0.9-4.1,1.4-8.1l0.3-0.3l8.8-1.5l0.2,0.3c-1.6,6.5-2,8.1-3.3,13.6l-1.8,7.9L122.5,43.6z"/>
	<path class="st0" d="M151.1,29.9c-0.7,2.9-1.4,5.8-1.9,8.6c-0.3,1.6-0.6,3.3-0.9,5l-0.2,0.2c0,0-2.2,0.4-5.1-0.5
		c-0.8-0.2-2.3-1.4-2.3-1.4c-1.6,1.6-3.9,2.5-6.1,2.5c-1.9,0-3.2-0.7-3.9-1.2c-2.7-2-2.8-5.6-2.8-6.8c0-5,2.4-8.6,4.2-10.4
		c4-3.9,8.3-3.9,10-4c2.2,0.1,4.5,1.7,6.6,1.5c2.9,0.2,4.1-1.5,4.1-1.5l0.2,0.3L151.1,29.9z M143.8,27.2c-1.3,0-2.9-0.1-4.4,1.1
		c-1.1,1-2.8,3.5-2.8,7.1c0,2.1,0.9,3.3,2.6,3.3c0.9,0,1.5-0.4,2.1-0.9L143.8,27.2z"/>
	<path class="st0" d="M167.8,32.6c1.8,4.1,2.4,5.4,5.2,11l-0.2,0.2c-4,0-8.2,1.6-10.1-3.2l-0.8-2.2l-1.5,2c-0.3,0.5-0.9,1.4-0.9,1.4
		c-0.4,0.6-1.1,1.7-1.2,1.8l-0.4,0.2c-3.2,0-4.1,0-7.4,0.2l-0.2-0.4l3.9-4.4l5.4-6.3c-0.9-2-1.1-2.6-2.2-5c-1.4-3.1-1.6-3.6-2.5-5.6
		l0.3-0.4c1.7-0.2,6.1-3.4,10.5,5.2l0.9-1.4c0.9-1.3,1.6-2.5,2.4-3.6l0.3-0.3c3.3,0,3.9,0,7.1-0.1l0.2,0.5c-1.1,1.4-3,3.5-4.1,4.9
		L167.8,32.6z"/>
</g>
<g>
	<path class="st1" d="M181.3,14.9c0,0,1.5,1.4,4,1.2c3.9-0.2,5.5-1.3,11.1-1.2c4.1,0.5,6.5,2.7,6.5,6.3c0,3.2-2.1,5.3-3.9,6.3
		c-0.7,0.4-1.4,0.6-2.1,0.8c0.8,0.3,1.6,0.5,2.3,1.1c0.8,0.6,2.2,2.1,2.2,4.6c0,1.5-0.6,4.1-2,5.9c-1,1.2-2.5,2.6-6,3.4
		c-2.5,0.5-3.5,0.5-12,0.5h-2.7l-3.9,0.1l-0.2-0.2l1.6-6.2l1.2-5.2c2.4-10.3,2.6-11.4,3.6-17.1L181.3,14.9z M184.5,38.5l1.4,0
		c1.2,0,2.7,0,3.8-0.5c1.8-0.8,2.3-2.5,2.3-3.5c0-1.6-1.2-2.1-1.4-2.3c-0.6-0.3-3-0.3-3.4-2.1l-0.4-1.4L184.5,38.5z M186.8,28.5
		l0.9-0.9c0.9-0.9,2.5-0.9,4.3-1.8c1.2-0.7,2-1.9,2-3.3c0-0.4,0-1.4-1.3-2c-0.7-0.3-1.4-0.4-2.9-0.4l-1,0L186.8,28.5z"/>
	<path class="st1" d="M227.2,29.9c-0.7,2.9-1.4,5.8-1.9,8.6c-0.3,1.6-0.6,3.3-0.9,5l-0.2,0.2c0,0-2.2,0.4-5.1-0.5
		c-0.8-0.2-2.3-1.4-2.3-1.4c-1.6,1.6-3.9,2.5-6.1,2.5c-1.9,0-3.2-0.7-3.9-1.2c-2.7-2-2.8-5.6-2.8-6.8c0-5,2.4-8.6,4.2-10.4
		c4-3.9,8.3-3.9,10-4c2.2,0.1,4.5,1.7,6.6,1.5c2.9,0.2,4.1-1.5,4.1-1.5l0.2,0.3L227.2,29.9z M219.8,27.2c-1.3,0-2.9-0.1-4.4,1.1
		c-1.1,1-2.8,3.5-2.8,7.1c0,2.1,0.9,3.3,2.6,3.3c0.9,0,1.5-0.4,2.1-0.9L219.8,27.2z"/>
	<path class="st1" d="M249.9,43.6l-0.3,0.2h-0.8c0,0-7.5,0.4-6.6-4l0.7-2.8l0.9-4c0.2-0.8,0.6-2.8,0.6-3.4c0-1.4-0.9-1.9-1.8-1.9
		c-0.7,0-1.5,0.4-2.2,0.7c-1.6,7.5-2.1,9.9-3.2,15.2l-0.2,0.2l-8.3,0.2l-0.2-0.3l1.7-7.1l0.6-2.6c1.1-5.3,1.4-6.6,1.9-11.1l0.3-0.3
		c0.1,0.1,0.2,0.9,3.1,0.9c5.7-0.2,7.4-2,11.4-2c1.4,0,5.5,0.5,5.5,5.4c0,2.1-0.9,6.1-1.6,8.9l-0.6,2.8L249.9,43.6z"/>
	<path class="st1" d="M272.7,30.8c0.9,2.6,1,3.3,1.5,5c0.9,3.2,1.1,3.8,2.3,7.5l-0.4,0.4h0c-6.4,0.1-9.5-4.3-9.9-6.4
		c-0.5-2.3-0.7-2.9-1.3-5.4c-1.4,5.7-1.6,7.3-2.4,11.6l-0.3,0.2l-8.1,0.2l-0.2-0.3l2.5-9.8l1-4.6c1-4.2,1.1-5,2.5-12.2
		c0.5-2.2,0.5-2.4,0.7-4.1l0.3-0.3c4.1-0.6,5.2-0.8,8.8-1.4l0.2,0.3l-1.5,5.9l-3.4,14c2.5-3.1,4-5.1,6.7-9.2l0.3-0.2
		c3.4,0,4.3,0,7.9-0.2l0.2,0.4c-1.7,1.8-2.4,2.7-3.3,3.6L272.7,30.8z"/>
	<path class="st1" d="M289.1,35.8c-0.9,4-1,4.9-1.4,7.7l-0.2,0.2l-8.7,0.2l-0.2-0.3c1.4-5.2,1.6-6.1,2.7-11l0.4-1.7
		c0.9-3.9,1-4.7,1.4-8l0.3-0.3c4.1-0.5,5.1-0.7,8.8-1.4l0.2,0.3l-2.8,12L289.1,35.8z M292.9,18.4l-0.3,0.3c0,0-3.7,0.7-6-0.4
		c-2.9-1.4-1-5.2-1-5.2l0.3-0.3l8.2-1.1l0.2,0.3L292.9,18.4z"/>
	<path class="st1" d="M313.1,43.6l-0.3,0.2h-0.8c0,0-7.5,0.4-6.6-4L306,37l0.9-4c0.2-0.8,0.6-2.8,0.6-3.4c0-1.4-0.9-1.9-1.8-1.9
		c-0.7,0-1.5,0.4-2.2,0.7c-1.6,7.5-2.1,9.9-3.2,15.2l-0.2,0.2l-8.3,0.2l-0.2-0.3l1.7-7.1l0.6-2.6c1.1-5.3,1.4-6.6,1.9-11.1l0.3-0.3
		c0.1,0.1,0.2,0.9,3.1,0.9c5.7-0.2,7.4-2,11.4-2c1.4,0,5.5,0.5,5.5,5.4c0,2.1-0.9,6.1-1.6,8.9l-0.6,2.8L313.1,43.6z"/>
	<path class="st1" d="M343.6,22.1c-1.3,5-1.7,6.5-3,12.4l-1.3,5.7c-1.3,6-1.9,9-4.8,11.3c-1.6,1.3-4.6,2.9-7,2.8
		c-1.4,0-4.6-0.2-7-2.6c-3.3-3.6-3-4.9-3.1-5l0.4-0.7c1.6,1,3.7,2.7,7,2.7c1.9,0,3.4-0.9,4.3-2c0.7-0.9,1.1-2.1,1.4-3.1l0.2-1
		c-1.7,0.9-3,1.6-5.2,1.6c-5.1,0-7.1-4-7.1-7.7c0-3,1-6.5,2.7-9c3.6-5.4,9-5.5,14.1-5.6l8.3-0.1L343.6,22.1z M333.4,27.3
		c-1.3,0-3,0-4.4,1.6c-1.3,1.4-2.1,4.3-2.1,6.3c0,0.5,0,0.9,0.1,1.4c0.5,2.2,2.3,2.2,2.5,2.2c0.9,0,1.5-0.4,2-0.8l2.5-10.7H333.4z"
		/>
</g>
<g>
	<path d="M67.2,65.5l-0.1,0.1l-1.9,0h-2.1l-1.7,0l-0.1-0.1l0.8-3.5l0.7-3.2l0.9-4.4l0.1-0.1l1,0l0.1,0.1l-1,4.1l-0.7,3.2
		c-0.2,0.8-0.5,2.2-0.6,3c1.6,0,2.1,0,4.7-0.1l0.1,0.1L67.2,65.5z"/>
	<path d="M75.6,60.7c-0.5,2.4-0.6,2.9-0.9,4.8l-0.1,0.1l-0.9,0l-0.1-0.1l0.1-0.6c-0.4,0.3-1.1,0.8-2.4,0.8c-1.6,0-3-1.1-3-3.1
		c0-1.3,0.6-3.3,2.3-4.4c1.4-0.9,2.8-0.9,3.7-0.9l1.8,0l0.1,0.1L75.6,60.7z M75.2,58.2c-0.3,0-0.6,0-0.8,0c-1.6,0-3,0.4-4,1.7
		c-0.6,0.7-1,1.9-1,2.7c0,1.2,0.7,2.3,2.1,2.3c1.5,0,2.4-1,2.4-1L75.2,58.2z"/>
	<path d="M84.7,65.4l-0.1,0.1c-0.3,0.1-0.6,0.1-1,0.1c-1,0-1.6-0.4-1.6-1.3c0-0.1,0-0.3,0-0.4c0.1-0.7,0.6-2.8,0.8-3.6l0.5-2.2
		l-1.3,0L82,58.1l0.2-0.7l0.1-0.1l1.2,0l0.4-2l0.1-0.1l1-0.2l0.1,0.1l-0.3,1.1l-0.3,1.1l1.8,0l0.1,0.1l-0.2,0.7l-0.1,0.1l-1.8,0
		l-1,4.2c-0.1,0.4-0.3,1.4-0.3,1.7c0,0.6,0.3,0.8,0.8,0.8c0.3,0,0.7-0.1,1-0.2l0.1,0.1L84.7,65.4z"/>
	<path d="M92.8,63c-0.3,1.3-0.3,1.6-0.5,2.5l-0.1,0.1l-0.9,0.1l-0.1-0.1l0.2-0.8c-0.4,0.3-1.3,1-2.6,1c-1.3,0-2.4-0.7-2.4-2.2
		c0-0.7,0.1-1.3,0.4-2.5l0.4-1.6l0.4-1.9l0.1-0.1l1,0l0.1,0.1c-0.3,1.3-0.6,2.5-0.9,3.9c-0.1,0.4-0.3,1.5-0.3,2.1
		c0,1,0.7,1.5,1.5,1.5c1.3,0,2-0.7,2.6-1.2l0.5-2.5c0.4-1.8,0.5-2.3,0.8-3.7l0.1-0.1l0.9,0l0.1,0.1l-0.9,3.7L92.8,63z"/>
	<path d="M102,60.7c-0.5,2.4-0.6,2.9-0.9,4.8l-0.1,0.1l-0.9,0l-0.1-0.1l0.1-0.6c-0.4,0.3-1.1,0.8-2.4,0.8c-1.6,0-3-1.1-3-3.1
		c0-1.3,0.6-3.3,2.3-4.4c1.4-0.9,2.8-0.9,3.7-0.9l1.8,0l0.1,0.1L102,60.7z M101.6,58.2c-0.3,0-0.6,0-0.8,0c-1.6,0-3,0.4-4,1.7
		c-0.6,0.7-1,1.9-1,2.7c0,1.2,0.7,2.3,2.1,2.3c1.5,0,2.4-1,2.4-1L101.6,58.2z"/>
	<path d="M112.4,54.2c0.4,0,0.8,0,1.2,0c0.6,0,1.7,0,2.4,0.6c0.3,0.2,0.8,0.8,0.8,1.7c0,0.8-0.3,2.2-1.7,2.8
		c-0.3,0.1-0.6,0.2-0.9,0.3c0.1,0,0.2,0,0.4,0c0.7,0.1,1.7,0.8,1.7,2.3c0,1.6-0.9,2.5-1.7,3c-1.1,0.6-2.6,0.6-4.7,0.6h-0.6l-1,0
		l-0.1-0.1l0.5-2.2l0.5-2.3c0.8-3.3,1-4.2,1.4-6.7l0.1-0.1l0.9,0L112.4,54.2z M109.8,62.3c-0.3,1.3-0.4,1.6-0.5,2.4h0.8
		c1.7,0,3.4,0,4.3-0.9c0.4-0.4,0.7-1.1,0.7-1.8c0-1.2-0.9-1.5-1.2-1.6c-0.6-0.2-1.2-0.2-2.8-0.2l-0.8,0L109.8,62.3z M110.5,59.3
		l0.5,0c1.4,0,2.9,0,3.8-0.8c0.8-0.7,0.8-1.6,0.8-1.8c0-0.8-0.4-1.2-1-1.5c-0.4-0.2-0.9-0.2-2.3-0.2l-0.9,0l-0.4,1.9L110.5,59.3z"/>
	<path d="M125,60.7c-0.5,2.4-0.6,2.9-0.9,4.8l-0.1,0.1l-0.9,0l-0.1-0.1l0.1-0.6c-0.4,0.3-1.1,0.8-2.4,0.8c-1.6,0-3-1.1-3-3.1
		c0-1.3,0.6-3.3,2.3-4.4c1.4-0.9,2.8-0.9,3.7-0.9l1.8,0l0.1,0.1L125,60.7z M124.6,58.2c-0.3,0-0.6,0-0.8,0c-1.6,0-3,0.4-4,1.7
		c-0.6,0.7-1,1.9-1,2.7c0,1.2,0.7,2.3,2.1,2.3c1.5,0,2.4-1,2.4-1L124.6,58.2z"/>
	<path d="M132.6,65.5l-0.1,0.1l-1,0l-0.1-0.1l0.7-3l0.4-1.9c0.2-0.7,0.2-1,0.2-1.2c0-0.9-0.6-1.3-1.5-1.3c-1.3,0-2.1,0.6-2.7,1.1
		c-0.6,2.7-0.7,3.4-1.3,6.3l-0.1,0.1l-0.9,0l-0.1-0.1l0.6-2.7l0.3-1.3c0.4-1.9,0.5-2.3,0.8-3.9l0.1-0.1l1-0.2l0.1,0.1l-0.2,0.8
		c0.6-0.4,1.5-1,2.8-1c1.3,0,2.3,0.7,2.3,2c0,0.7-0.3,2.2-0.5,3l-0.3,1.1L132.6,65.5z"/>
	<path d="M140.9,64.1l-0.4,1.1l-0.1,0.1c-0.8,0.4-1.6,0.5-2,0.5c-2.3,0-3.3-1.6-3.3-3.5c0-2,1.4-5.1,4.6-5.1c1.3,0,1.9,0.4,2.3,0.6
		l0,0.1l-0.3,0.9l-0.2,0.1c-0.1-0.1-0.2-0.3-0.3-0.4c-0.4-0.3-1-0.5-1.6-0.5c-2.6,0-3.5,2.8-3.5,4.2c0,1.1,0.5,2.6,2.4,2.6
		c1.2,0,1.8-0.6,2.2-0.8L140.9,64.1z"/>
	<path d="M149.3,60.7c-0.5,2.4-0.6,2.9-0.9,4.8l-0.1,0.1l-0.9,0l-0.1-0.1l0.1-0.6c-0.4,0.3-1.1,0.8-2.4,0.8c-1.6,0-3-1.1-3-3.1
		c0-1.3,0.6-3.3,2.3-4.4c1.4-0.9,2.8-0.9,3.7-0.9l1.8,0l0.1,0.1L149.3,60.7z M148.9,58.2c-0.3,0-0.6,0-0.8,0c-1.6,0-3,0.4-4,1.7
		c-0.6,0.7-1,1.9-1,2.7c0,1.2,0.7,2.3,2.1,2.3c1.5,0,2.4-1,2.4-1L148.9,58.2z"/>
	<path d="M163,59.4c-0.7,3.1-0.9,4.1-1.3,6.1l-0.1,0.1l-0.9,0l-0.1-0.1l0.1-0.6c-0.7,0.4-1.3,0.8-2.4,0.8c-1.8,0-3-1.2-3-3.2
		c0-1,0.3-2.3,1.3-3.5c1.3-1.6,3-1.8,4.6-1.8c0.4,0,0.8,0,1.2,0.1l0.4-1.9c0.2-1.2,0.3-1.4,0.4-2.3l0.1-0.1l1-0.2l0.1,0.1l-0.8,3.3
		L163,59.4z M162.3,58.2c-0.3,0-0.6-0.1-0.9-0.1c-1.2,0-2.5,0.3-3.5,1.2c-1,0.9-1.3,2.3-1.3,3.2c0,1.2,0.6,2.4,2.1,2.4
		c0.7,0,1.4-0.3,1.7-0.5c0.2-0.1,0.4-0.3,0.7-0.5L162.3,58.2z"/>
	<path d="M165,65.5l-0.1,0.1l-0.9,0l-0.1-0.1c0.4-1.7,0.6-2.4,1-4.2l0.2-1.1c0.3-1.2,0.3-1.5,0.5-2.6l0.1-0.1l1-0.1l0.1,0.1
		c-0.4,1.5-0.5,1.8-0.9,4l-0.4,2L165,65.5z M167.4,54.6l-0.1,0.1l-1,0.1l-0.1-0.1l0.2-1l0.1-0.1l1-0.1l0.1,0.1L167.4,54.6z"/>
	<path d="M180.2,65l-0.1,0.1c-0.9,0.5-1.8,0.7-2.8,0.7c-2.8,0-4.6-1.7-4.6-4.7c0-2.8,1.8-7,6.5-7c1.7,0,2.5,0.5,3.1,0.9l0,0.1
		l-0.3,0.8l-0.1,0c-0.2-0.2-0.4-0.3-0.6-0.4c-0.6-0.4-1.5-0.6-2.2-0.6c-3.5,0-5.4,3.4-5.4,6.2c0,2,1.2,3.8,3.7,3.8
		c1.6,0,2.6-0.8,3.1-1.2l0.1,0.1L180.2,65z"/>
	<path d="M182.6,65.5l-0.1,0.1l-1,0l-0.1-0.1l0.6-2.3l0.4-1.6c0.1-0.5,0.2-0.9,0.3-1.4c0.3-1.3,0.3-1.4,0.5-2.6l0.1-0.1l1-0.2
		l0.1,0.1l-0.3,1.1c0.4-0.6,1-1.4,2.1-1.4c0.4,0,0.5,0.1,0.7,0.2l0,0.1l-0.3,0.8l-0.2,0c-0.2-0.1-0.4-0.2-0.6-0.2
		c-0.2,0-0.9,0-1.6,1c-0.5,0.7-0.8,2-1,3.1l-0.3,1.6L182.6,65.5z"/>
	<path d="M192.9,65l-0.1,0.1c-0.7,0.4-1.3,0.7-2.5,0.7c-2.3,0-3.4-1.3-3.4-3.3c0-2.3,1.3-5.2,4.5-5.2c1.4,0,2.9,0.6,2.9,2.8
		c0,0.5-0.1,0.9-0.2,1.4l-0.1,0.1c-1.1,0-2.2,0-3.3,0c-1,0-1.7,0-2.7,0c0,0.4-0.1,0.7-0.1,1c0,1.6,1,2.5,2.6,2.5c1.2,0,2-0.5,2.6-1
		l0.1,0.1L192.9,65z M193.2,60.6c0-0.3,0.1-0.5,0.1-0.8c0-0.7-0.4-1.8-2-1.8c-0.7,0-1.6,0.2-2.4,1.2c-0.4,0.5-0.6,0.9-0.8,1.4H193.2
		z"/>
	<path d="M202.7,59.4c-0.7,3.1-0.9,4.1-1.3,6.1l-0.1,0.1l-0.9,0l-0.1-0.1l0.1-0.6c-0.7,0.4-1.3,0.8-2.4,0.8c-1.8,0-3-1.2-3-3.2
		c0-1,0.3-2.3,1.3-3.5c1.3-1.6,3-1.8,4.6-1.8c0.4,0,0.8,0,1.2,0.1l0.4-1.9c0.2-1.2,0.3-1.4,0.4-2.3l0.1-0.1l1-0.2l0.1,0.1l-0.8,3.3
		L202.7,59.4z M202,58.2c-0.3,0-0.6-0.1-0.9-0.1c-1.2,0-2.5,0.3-3.5,1.2c-1,0.9-1.3,2.3-1.3,3.2c0,1.2,0.6,2.4,2.1,2.4
		c0.7,0,1.4-0.3,1.7-0.5c0.2-0.1,0.4-0.3,0.7-0.5L202,58.2z"/>
	<path d="M204.7,65.5l-0.1,0.1l-0.9,0l-0.1-0.1c0.4-1.7,0.6-2.4,1-4.2l0.2-1.1c0.3-1.2,0.3-1.5,0.5-2.6l0.1-0.1l1-0.1l0.1,0.1
		c-0.4,1.5-0.5,1.8-0.9,4l-0.4,2L204.7,65.5z M207.1,54.6l-0.1,0.1l-1,0.1l-0.1-0.1l0.2-1l0.1-0.1l1-0.1l0.1,0.1L207.1,54.6z"/>
	<path d="M210.1,65.4l-0.1,0.1c-0.3,0.1-0.6,0.1-1,0.1c-1,0-1.6-0.4-1.6-1.3c0-0.1,0-0.3,0-0.4c0.1-0.7,0.6-2.8,0.8-3.6l0.5-2.2
		l-1.3,0l-0.1-0.1l0.2-0.7l0.1-0.1l1.2,0l0.4-2l0.1-0.1l1-0.2l0.1,0.1l-0.3,1.1l-0.3,1.1l1.8,0l0.1,0.1l-0.2,0.7l-0.1,0.1l-1.8,0
		l-1,4.2c-0.1,0.4-0.3,1.4-0.3,1.7c0,0.6,0.3,0.8,0.8,0.8c0.3,0,0.7-0.1,1-0.2l0.1,0.1L210.1,65.4z"/>
	<path d="M214.6,65.8c-2,0-3.1-1.1-3.1-3.1c0-1.9,0.9-5.4,4.5-5.4c2.2,0,3.1,1.4,3.1,3.1c0,0.6-0.1,1.1-0.3,1.7
		C218.7,62.8,217.8,65.8,214.6,65.8z M218.1,60.3c0-1.7-1.2-2.3-2.1-2.3c-3,0-3.5,3.8-3.5,4.7c0,1.3,0.7,2.3,2.2,2.3
		c0.5,0,1.1-0.1,1.7-0.5c1.1-0.8,1.4-2.3,1.5-2.8C218,61.1,218.1,60.7,218.1,60.3z"/>
	<path d="M232.9,65l-0.1,0.1c-0.9,0.5-1.8,0.7-2.8,0.7c-2.8,0-4.6-1.7-4.6-4.7c0-2.8,1.8-7,6.5-7c1.7,0,2.5,0.5,3.1,0.9l0,0.1
		l-0.3,0.8l-0.1,0c-0.2-0.2-0.4-0.3-0.6-0.4c-0.6-0.4-1.5-0.6-2.2-0.6c-3.5,0-5.4,3.4-5.4,6.2c0,2,1.2,3.8,3.7,3.8
		c1.6,0,2.6-0.8,3.1-1.2l0.1,0.1L232.9,65z"/>
	<path d="M237.6,65.8c-2,0-3.1-1.1-3.1-3.1c0-1.9,0.9-5.4,4.5-5.4c2.2,0,3.1,1.4,3.1,3.1c0,0.6-0.1,1.1-0.3,1.7
		C241.7,62.8,240.8,65.8,237.6,65.8z M241.1,60.3c0-1.7-1.2-2.3-2.1-2.3c-3,0-3.5,3.8-3.5,4.7c0,1.3,0.7,2.3,2.2,2.3
		c0.5,0,1.1-0.1,1.7-0.5c1.1-0.8,1.4-2.3,1.5-2.8C241,61.1,241.1,60.7,241.1,60.3z"/>
	<path d="M246.3,65.8c-2,0-3.1-1.1-3.1-3.1c0-1.9,0.9-5.4,4.5-5.4c2.2,0,3.1,1.4,3.1,3.1c0,0.6-0.1,1.1-0.3,1.7
		C250.3,62.8,249.5,65.8,246.3,65.8z M249.8,60.3c0-1.7-1.2-2.3-2.1-2.3c-3,0-3.5,3.8-3.5,4.7c0,1.3,0.7,2.3,2.2,2.3
		c0.5,0,1.1-0.1,1.7-0.5c1.1-0.8,1.4-2.3,1.5-2.8C249.7,61.1,249.8,60.7,249.8,60.3z"/>
	<path d="M251.8,64.4c0.8-3.2,0.9-4,1.4-6.9l0.1-0.1l1-0.2l0.1,0.1l-0.1,0.6c0.5-0.3,1.2-0.8,2.3-0.8c1.7,0,2.9,1.4,2.9,3.2
		c0,0.7-0.1,1.3-0.3,1.7s-0.6,1.7-2.3,2.7c-1.2,0.7-2.4,0.8-3.3,0.8c-0.4,0-0.8,0-1.1,0c-0.4,1.4-0.4,1.8-0.8,3.7l-0.1,0.1h-1
		l-0.1-0.1L251.8,64.4z M252.7,64.7c0.4,0,0.6,0.1,0.9,0.1c0.3,0,0.6,0,0.8-0.1c0.7-0.1,1.4-0.3,2-0.7c0.6-0.4,1.9-1.5,1.9-3.5
		c0-0.5-0.1-1-0.4-1.5c-0.5-0.8-1.2-0.9-1.8-0.9c-0.5,0-1.1,0.1-1.6,0.5c-0.3,0.2-0.5,0.4-0.7,0.6L252.7,64.7z"/>
	<path d="M266.6,65l-0.1,0.1c-0.7,0.4-1.3,0.7-2.5,0.7c-2.3,0-3.4-1.3-3.4-3.3c0-2.3,1.3-5.2,4.5-5.2c1.4,0,2.9,0.6,2.9,2.8
		c0,0.5-0.1,0.9-0.2,1.4l-0.1,0.1c-1.1,0-2.2,0-3.3,0c-1,0-1.7,0-2.7,0c0,0.4-0.1,0.7-0.1,1c0,1.6,1,2.5,2.6,2.5c1.2,0,2-0.5,2.6-1
		l0.1,0.1L266.6,65z M266.9,60.6c0-0.3,0.1-0.5,0.1-0.8c0-0.7-0.4-1.8-2-1.8c-0.7,0-1.6,0.2-2.4,1.2c-0.4,0.5-0.6,0.9-0.8,1.4H266.9
		z"/>
	<path d="M269.7,65.5l-0.1,0.1l-1,0l-0.1-0.1l0.6-2.3l0.4-1.6c0.1-0.5,0.2-0.9,0.3-1.4c0.3-1.3,0.3-1.4,0.5-2.6l0.1-0.1l1-0.2
		l0.1,0.1l-0.3,1.1c0.4-0.6,1-1.4,2.1-1.4c0.4,0,0.5,0.1,0.7,0.2l0,0.1l-0.3,0.8l-0.2,0c-0.2-0.1-0.4-0.2-0.6-0.2
		c-0.2,0-0.9,0-1.6,1c-0.5,0.7-0.8,2-1,3.1l-0.3,1.6L269.7,65.5z"/>
	<path d="M281,60.7c-0.5,2.4-0.6,2.9-0.9,4.8l-0.1,0.1l-0.9,0l-0.1-0.1l0.1-0.6c-0.4,0.3-1.1,0.8-2.4,0.8c-1.6,0-3-1.1-3-3.1
		c0-1.3,0.6-3.3,2.3-4.4c1.4-0.9,2.8-0.9,3.7-0.9l1.8,0l0.1,0.1L281,60.7z M280.6,58.2c-0.3,0-0.6,0-0.8,0c-1.6,0-3,0.4-4,1.7
		c-0.6,0.7-1,1.9-1,2.7c0,1.2,0.7,2.3,2.1,2.3c1.5,0,2.4-1,2.4-1L280.6,58.2z"/>
	<path d="M285.4,65.4l-0.1,0.1c-0.3,0.1-0.6,0.1-1,0.1c-1,0-1.6-0.4-1.6-1.3c0-0.1,0-0.3,0-0.4c0.1-0.7,0.6-2.8,0.8-3.6l0.5-2.2
		l-1.3,0l-0.1-0.1l0.2-0.7l0.1-0.1l1.2,0l0.4-2l0.1-0.1l1-0.2l0.1,0.1l-0.3,1.1l-0.3,1.1l1.8,0l0.1,0.1l-0.2,0.7l-0.1,0.1l-1.8,0
		l-1,4.2c-0.1,0.4-0.3,1.4-0.3,1.7c0,0.6,0.3,0.8,0.8,0.8c0.3,0,0.7-0.1,1-0.2l0.1,0.1L285.4,65.4z"/>
	<path d="M287.7,65.5l-0.1,0.1l-0.9,0l-0.1-0.1c0.4-1.7,0.6-2.4,1-4.2l0.2-1.1c0.3-1.2,0.3-1.5,0.5-2.6l0.1-0.1l1-0.1l0.1,0.1
		c-0.4,1.5-0.5,1.8-0.9,4l-0.4,2L287.7,65.5z M290.1,54.6l-0.1,0.1l-1,0.1l-0.1-0.1l0.2-1l0.1-0.1l1-0.1l0.1,0.1L290.1,54.6z"/>
	<path d="M294.8,62.3c-0.2,0.3-0.3,0.6-0.5,0.9c-0.3,0.6-0.5,0.8-0.8,1.4c-0.2,0.3-0.3,0.6-0.5,0.9l-0.1,0.1l-1.3,0l-0.1-0.1
		l-0.3-3.2l-0.2-1.8l-0.4-3l0.1-0.1l0.9-0.1l0.1,0.1l0.2,2.5l0.2,2.5l0.2,2.4l2.5-4.6c1-1.7,1.1-2,1.5-2.9l0.1-0.1h1l0.1,0.1
		c-0.7,1.2-0.8,1.3-1.6,2.7L294.8,62.3z"/>
	<path d="M300.3,65.8c-2,0-3.1-1.1-3.1-3.1c0-1.9,0.9-5.4,4.5-5.4c2.2,0,3.1,1.4,3.1,3.1c0,0.6-0.1,1.1-0.3,1.7
		C304.4,62.8,303.5,65.8,300.3,65.8z M303.8,60.3c0-1.7-1.2-2.3-2.1-2.3c-3,0-3.5,3.8-3.5,4.7c0,1.3,0.7,2.3,2.2,2.3
		c0.5,0,1.1-0.1,1.7-0.5c1.1-0.8,1.4-2.3,1.5-2.8C303.7,61.1,303.8,60.7,303.8,60.3z"/>
	<path d="M313.7,65.8c-2,0-3.1-1.1-3.1-3.1c0-1.9,0.9-5.4,4.5-5.4c2.2,0,3.1,1.4,3.1,3.1c0,0.6-0.1,1.1-0.3,1.7
		C317.7,62.8,316.9,65.8,313.7,65.8z M317.1,60.3c0-1.7-1.2-2.3-2.1-2.3c-3,0-3.5,3.8-3.5,4.7c0,1.3,0.7,2.3,2.2,2.3
		c0.5,0,1.1-0.1,1.7-0.5c1.1-0.8,1.4-2.3,1.5-2.8C317,61.1,317.1,60.7,317.1,60.3z"/>
	<path d="M325.4,65.5l-0.1,0.1l-1,0l-0.1-0.1l0.7-3l0.4-1.9c0.2-0.7,0.2-1,0.2-1.2c0-0.9-0.6-1.3-1.5-1.3c-1.3,0-2.1,0.6-2.7,1.1
		c-0.6,2.7-0.7,3.4-1.3,6.3l-0.1,0.1l-0.9,0l-0.1-0.1l0.6-2.7l0.3-1.3c0.4-1.9,0.5-2.3,0.8-3.9l0.1-0.1l1-0.2l0.1,0.1l-0.2,0.8
		c0.6-0.4,1.5-1,2.8-1c1.3,0,2.3,0.7,2.3,2c0,0.7-0.3,2.2-0.5,3l-0.3,1.1L325.4,65.5z"/>
	<path d="M334.6,59.5c-0.6,3-0.8,3.7-1.2,6l-0.1,0.1l-0.9,0l-0.1-0.1l0.7-3.1l0.9-4c0.6-2.6,0.7-3.2,1-5.3L335,53c0.4,0,0.6,0,1-0.2
		l0.1,0.1l-0.8,3.7L334.6,59.5z"/>
	<path d="M336.7,65.5l-0.1,0.1l-0.9,0l-0.1-0.1c0.4-1.7,0.6-2.4,1-4.2l0.2-1.1c0.3-1.2,0.3-1.5,0.5-2.6l0.1-0.1l1-0.1l0.1,0.1
		c-0.4,1.5-0.5,1.8-0.9,4l-0.4,2L336.7,65.5z M339.2,54.6l-0.1,0.1l-1,0.1l-0.1-0.1l0.2-1l0.1-0.1l1-0.1l0.1,0.1L339.2,54.6z"/>
	<path d="M345.4,65.5l-0.1,0.1l-1,0l-0.1-0.1l0.7-3l0.4-1.9c0.2-0.7,0.2-1,0.2-1.2c0-0.9-0.6-1.3-1.5-1.3c-1.3,0-2.1,0.6-2.7,1.1
		c-0.6,2.7-0.7,3.4-1.3,6.3l-0.1,0.1l-0.9,0l-0.1-0.1l0.6-2.7l0.3-1.3c0.4-1.9,0.5-2.3,0.8-3.9l0.1-0.1l1-0.2l0.1,0.1l-0.2,0.8
		c0.6-0.4,1.5-1,2.8-1c1.3,0,2.3,0.7,2.3,2c0,0.7-0.3,2.2-0.5,3l-0.3,1.1L345.4,65.5z"/>
	<path d="M353.9,65l-0.1,0.1c-0.7,0.4-1.3,0.7-2.5,0.7c-2.3,0-3.4-1.3-3.4-3.3c0-2.3,1.3-5.2,4.5-5.2c1.4,0,2.9,0.6,2.9,2.8
		c0,0.5-0.1,0.9-0.2,1.4l-0.1,0.1c-1.1,0-2.2,0-3.3,0c-1,0-1.7,0-2.7,0c0,0.4-0.1,0.7-0.1,1c0,1.6,1,2.5,2.6,2.5c1.2,0,2-0.5,2.6-1
		l0.1,0.1L353.9,65z M354.2,60.6c0-0.3,0.1-0.5,0.1-0.8c0-0.7-0.4-1.8-2-1.8c-0.7,0-1.6,0.2-2.4,1.2c-0.4,0.5-0.6,0.9-0.8,1.4H354.2
		z"/>
</g>
<path class="st0" d="M29.7,44.9c-4.1,0-7.5-2.6-8.2-7.5c-4.5-0.4-7-4.1-7-7.8c0-4,2.6-7.4,7-8.1c0.7-4.5,4-7,8.2-7
	c3.7,0,7.4,2.6,7.8,7c4,0.8,6.7,3.3,7.1,6.6h-4.5c-0.4-1.1-1.1-1.5-2.2-2.2v2.2h-4.5V26H26v7.5h7.4v-2.2h4.5v1.9
	c1.1-0.4,1.8-1.2,2.2-1.9h4.5c-0.4,3.3-3,5.9-7.1,6.3C37.1,42.3,33.4,44.9,29.7,44.9 M26,37.9c0.8,1.8,2.2,2.6,3.7,2.6
	c1.4,0,2.6-0.7,3.3-2.6H26z M18.9,29.7c0,1.5,0.8,3,2.6,3.4V26C19.7,26.7,18.9,28.2,18.9,29.7 M33,21.6c-0.4-1.9-1.9-2.6-3.3-2.6
	c-1.5,0-3,0.8-3.7,2.6H33z M52,22.3L29.7,0L0,29.7l29.7,29.7L52,37.1C56,33.1,56,26.4,52,22.3"/>
</svg>
